<svg width="35" height="35" viewBox="0 0 35 35" fill="none" xmlns="http://www.w3.org/2000/svg">
<path fill-rule="evenodd" clip-rule="evenodd" d="M17.4987 0C27.1637 0 34.9975 7.88238 34.9975 17.6073H35C35 26.3958 28.601 33.68 20.2354 35V22.6983H24.3068H24.3093L24.3097 22.6956H24.3116L25.0867 17.6047H20.2329V14.3009C20.2329 13.4851 20.4659 12.6807 21.0975 12.1549C21.5426 11.7858 22.1851 11.5549 23.0827 11.5549H25.2901V11.5522H25.2924V7.21858C25.2924 7.21858 23.2881 6.87532 21.3742 6.87532C19.2256 6.87532 17.4775 7.57939 16.32 8.91546C15.322 10.0659 14.7623 11.6854 14.7623 13.7281V17.6047H10.3222V17.6074H10.3199V22.6983H14.7623V34.9996C6.39783 33.6786 0 26.395 0 17.6073C0 7.88238 7.83379 0 17.4987 0Z" fill="black"/>
</svg>
