<svg width="35" height="35" viewBox="0 0 35 35" fill="none" xmlns="http://www.w3.org/2000/svg">
<path fill-rule="evenodd" clip-rule="evenodd" d="M35 17.5C35 27.165 27.165 35 17.5 35C7.83502 35 0 27.165 0 17.5C0 7.83502 7.83502 0 17.5 0C27.165 0 35 7.83502 35 17.5ZM21.7277 12.0837C21.7277 11.4189 22.267 10.8796 22.9318 10.8796C23.5965 10.8796 24.1359 11.4189 24.1359 12.0837C24.1359 12.7485 23.5965 13.2878 22.9318 13.2878C22.267 13.2878 21.7277 12.7485 21.7277 12.0837ZM17.5837 12.4224C14.7966 12.4224 12.5313 14.6902 12.5313 17.4748C12.5313 20.2593 14.7991 22.5271 17.5837 22.5271C20.3682 22.5271 22.6359 20.2593 22.6359 17.4748C22.6359 14.6902 20.3682 12.4224 17.5837 12.4224ZM17.5837 20.7134C15.7975 20.7134 14.3475 19.2609 14.3475 17.4773C14.3475 15.6936 15.8 14.2412 17.5837 14.2412C19.3673 14.2412 20.8197 15.6936 20.8197 17.4773C20.8197 19.2609 19.3673 20.7134 17.5837 20.7134ZM13.4011 27.735H21.5943C24.9934 27.735 27.7579 24.9705 27.7579 21.5714V13.3783C27.7579 9.97912 24.9934 7.21465 21.5943 7.21465H13.4011C10.002 7.21465 7.23755 9.97912 7.23755 13.3783V21.5714C7.23755 24.9705 10.002 27.735 13.4011 27.735ZM9.16916 13.3783C9.16916 11.0453 11.0681 9.14627 13.4011 9.14627H21.5943C23.9273 9.14627 25.8262 11.0428 25.8262 13.3783V21.5714C25.8262 23.9044 23.9273 25.8034 21.5943 25.8034H13.4011C11.0681 25.8034 9.16916 23.9044 9.16916 21.5714V13.3783Z" fill="black"/>
</svg>
