<svg width="45" height="44" viewBox="0 0 45 44" fill="none" xmlns="http://www.w3.org/2000/svg">
<g clip-path="url(#clip0_314_19)">
<path d="M18.631 14.9086C14.9216 11.5455 11.239 8.20495 7.51034 4.82297C5.56546 6.89057 3.63976 8.93557 1.70256 10.9956C2.17056 11.4739 2.61938 11.9296 3.06436 12.3816C3.05285 12.4042 3.03751 12.4268 3.026 12.4531C2.71528 12.2573 2.40839 12.0577 2.06315 11.8393C3.80471 13.5792 5.5271 15.3041 7.24949 17.029C7.23031 17.0478 7.21112 17.0629 7.19194 17.0817C5.89536 15.9971 4.60261 14.9086 3.30603 13.8278C2.61938 13.2553 1.92505 12.6866 1.22689 12.1368C1.08496 12.0238 0.762729 11.9146 0.755057 11.956C0.728204 12.0954 0.747385 12.3063 0.866302 12.4946C0.98522 12.6829 1.24223 12.8825 1.44938 13.067C4.71002 16.0272 7.97066 18.9836 11.2351 21.9438C11.3579 22.0567 11.4922 22.1584 11.6686 22.3091C13.9933 19.8385 16.2987 17.383 18.6272 14.9049L18.631 14.9086Z" stroke="black" stroke-miterlimit="10"/>
<path d="M24.1127 24.7043C23.3877 25.4764 22.6933 26.2145 21.9722 26.9828C26.165 31.1896 30.3616 35.3964 34.5544 39.6069C34.7155 39.7764 36.5913 41.7686 38.3943 42.3486C39.0503 42.5595 39.6755 42.6235 39.6755 42.6235C40.3392 42.6913 40.88 42.6348 41.2521 42.5633C41.348 42.1867 41.4516 41.5653 41.325 40.7894C41.3212 40.7631 41.2176 40.1605 40.9222 39.4977C40.1742 37.8255 38.494 36.4735 38.0337 36.1157C33.3921 32.3119 28.7543 28.5081 24.1127 24.7006V24.7043ZM37.7307 40.2697C37.2243 39.8291 37.0747 39.1888 37.3969 38.8386C37.6808 38.5298 38.3905 38.5938 38.8316 38.9666C39.3111 39.3734 39.4799 40.0513 39.1884 40.4091C38.8891 40.7819 38.2485 40.7179 37.7307 40.2697Z" stroke="black" stroke-miterlimit="10"/>
<path d="M23.5489 24.226C22.0644 22.2488 21.5618 20.475 21.6961 18.9045C21.769 18.0496 21.5542 17.3868 20.4647 16.5695C20.0313 16.2456 19.6438 15.8351 19.1797 15.4171C16.901 17.8425 14.6416 20.2453 12.3477 22.6819C13.1264 23.39 13.8667 24.0867 14.6416 24.742C14.8142 24.8851 15.148 24.9491 15.3283 24.9303C16.7706 24.7495 18.282 24.7684 20.1694 25.7287C20.5798 25.9396 20.9903 26.192 21.4506 26.4556C22.1296 25.7325 22.8277 24.9906 23.5489 24.226V24.226Z" stroke="black" stroke-miterlimit="10"/>
<path d="M23.5488 24.226L24.3927 24.9341L22.2138 27.2239L21.0515 26.2259L23.5488 24.226Z" stroke="black" stroke-miterlimit="10"/>
<path d="M9.43661 42.2638C8.49295 41.9851 7.54928 41.7064 6.60561 41.4277C6.33709 40.5352 6.06857 39.6426 5.79621 38.75C6.46368 38.0796 7.12731 37.413 7.79479 36.7427C8.78449 36.9875 9.77419 37.2323 10.7677 37.4808C11.0094 38.3998 11.2472 39.3149 11.4889 40.2339C10.8061 40.9118 10.1194 41.5897 9.43661 42.2676V42.2638ZM44.0109 11.1142C42.9675 11.698 41.8819 12.2139 40.8999 12.8843C40.1211 13.4153 39.5611 13.2044 38.7593 12.9144C37.2633 12.3683 37.2556 11.3213 37.2901 10.0861C37.3093 9.46842 37.4666 9.09557 38.0267 8.79428C39.2235 8.15404 40.3858 7.44977 41.8167 6.62499C39.8373 6.16553 38.1532 6.06761 36.45 6.43292C34.9808 6.74928 33.972 7.55899 33.6229 9.06921C33.4196 9.96178 33.1395 10.8393 32.9055 11.7281C32.5104 13.2345 31.8468 14.5941 30.6883 15.6863C23.9522 22.0247 17.2238 28.3668 10.4723 34.6901C10.2307 34.9161 9.76268 35.0818 9.43278 35.0441C6.68233 34.7353 4.39221 36.4564 4.16205 39.0588C3.9434 41.5256 6.39463 43.7401 8.91875 43.8117C11.4774 43.8795 13.733 41.1829 13.2496 38.9835C13.1998 38.7538 13.2266 38.5052 13.3417 38.2981C13.4568 38.0909 13.6102 37.9817 13.7867 37.816C20.4576 31.4626 26.9251 25.3087 33.6536 19.0155C35.3376 17.4413 37.3438 16.4244 39.7951 16.4357C40.3513 16.4357 41.0111 16.1081 41.4484 15.7315C42.8332 14.5414 43.5966 12.9483 44.218 11.2912L44.0071 11.118L44.0109 11.1142Z" stroke="black" stroke-miterlimit="10"/>
</g>
<defs>
<clipPath id="clip0_314_19">
<rect width="44.4444" height="40" fill="white" transform="translate(0 4)"/>
</clipPath>
</defs>
</svg>
